# xmcd
#
# Track frame offsets: 
#        151
#        29215
#        47648
#        63841
#        66263
#        84373
#        109568
#
# Disc length: 1747 seconds
#
# Revision: 0
# Processed by: cddbd v1.5PL3 Copyright (c) Steve Scherf et al.
# Submitted via: ExactAudioCopy v0.95a4
#
DISCID=5806d107
DTITLE=Squarepusher - Maximum Priest EP [NTH-90997]
DYEAR=1999
DGENRE=Electronic
TTITLE0=Song: Our Underwater Torch
TTITLE1=Decathlon Oxide
TTITLE2=You're Going Down
TTITLE3=Cranium Oxide
TTITLE4=Two Bass Hit (Ae Mix)
TTITLE5=Circular Flexing (Yee-King Mix)
TTITLE6=Shin Triad (Wagonchrist Mix)
EXTD=
EXTT0=
EXTT1=
EXTT2=
EXTT3=
EXTT4=
EXTT5=
EXTT6=
PLAYORDER=
